<?xml version="1.0" encoding="UTF-8"?>
<!DOCTYPE svg PUBLIC "-//W3C//DTD SVG 1.1//EN" "http://www.w3.org/Graphics/SVG/1.1/DTD/svg11.dtd">
<svg xmlns="http://www.w3.org/2000/svg" version="1.1" width="600px" height="600px" style="shape-rendering:geometricPrecision; text-rendering:geometricPrecision; image-rendering:optimizeQuality; fill-rule:evenodd; clip-rule:evenodd" xmlns:xlink="http://www.w3.org/1999/xlink">
<g><path style="opacity:0.828" fill="#fefffe" d="M 46.5,415.5 C 46.4257,413.589 45.4257,412.422 43.5,412C 41.3136,410.691 39.1469,410.524 37,411.5C 36.3076,410.975 35.8076,410.308 35.5,409.5C 36.3256,408.549 36.4922,407.549 36,406.5C 33.7871,405.198 31.4537,404.198 29,403.5C 28.4676,400.135 26.6342,397.802 23.5,396.5C 22.9676,393.135 21.1342,390.802 18,389.5C 16.9485,385.409 14.6152,383.409 11,383.5C 9.84683,380.289 9.18016,376.956 9,373.5C 7.49121,371.081 5.32454,370.081 2.5,370.5C 2.16684,341.159 2.50017,311.826 3.5,282.5C 8.9238,279.09 10.9238,274.09 9.5,267.5C 13.9943,267.837 16.8276,265.837 18,261.5C 22.1105,257.076 26.2772,252.742 30.5,248.5C 32.0461,247.316 33.7127,246.316 35.5,245.5C 37.751,240.342 41.751,238.009 47.5,238.5C 48.2436,237.009 48.9103,235.509 49.5,234C 55.6223,233.807 61.9556,233.474 68.5,233C 70.9915,230.681 70.6582,229.847 67.5,230.5C 66.5481,228.955 66.2148,227.288 66.5,225.5C 67.5,225.5 68.5,225.5 69.5,225.5C 69.5,226.5 69.5,227.5 69.5,228.5C 71.1998,228.374 72.6998,227.707 74,226.5C 75,226.833 76,227.167 77,227.5C 82.4697,226.603 87.9697,225.936 93.5,225.5C 93.6602,227.199 93.4935,228.866 93,230.5C 91.8145,228.441 90.6479,228.274 89.5,230C 89.7591,231.261 90.4258,232.261 91.5,233C 97.8333,233.333 104.167,233.667 110.5,234C 112.283,239.151 115.783,240.984 121,239.5C 121.021,244.024 123.187,247.024 127.5,248.5C 128.372,225.465 128.705,202.465 128.5,179.5C 150.409,179.173 172.242,179.506 194,180.5C 193.177,256.995 193.344,333.495 194.5,410C 193.391,412.047 192.724,414.213 192.5,416.5C 171.497,416.667 150.497,416.5 129.5,416C 128.697,411.586 128.197,407.086 128,402.5C 124.466,404.522 122.966,407.522 123.5,411.5C 120.119,411.46 116.786,411.793 113.5,412.5C 113.48,414.143 114.147,415.476 115.5,416.5C 113.956,417.622 112.623,417.289 111.5,415.5C 107.841,416.101 104.174,416.767 100.5,417.5C 102.005,418.842 102.672,420.508 102.5,422.5C 88.1667,422.5 73.8333,422.5 59.5,422.5C 59.3573,420.738 59.6906,419.071 60.5,417.5C 55.8456,416.653 51.179,415.987 46.5,415.5 Z M 115.5,297.5 C 117.262,297.357 118.929,297.691 120.5,298.5C 121.474,300.743 121.808,303.076 121.5,305.5C 125.965,305.887 128.298,308.387 128.5,313C 128.492,322.099 128.326,331.266 128,340.5C 127.626,341.416 127.126,342.25 126.5,343C 124.925,342.621 123.425,342.788 122,343.5C 121.501,346.022 121.668,348.522 122.5,351C 118.119,359.082 111.452,361.748 102.5,359C 101.692,359.308 101.025,359.808 100.5,360.5C 101.603,360.998 102.603,361.331 103.5,361.5C 102.91,362.799 101.91,363.632 100.5,364C 96.4285,364.658 92.4285,364.325 88.5,363C 87.1669,361.16 87.3335,360.66 89,361.5C 90.586,360.624 92.086,359.624 93.5,358.5C 91.6017,357.266 89.935,357.599 88.5,359.5C 85.2443,359.194 81.911,359.027 78.5,359C 73.9479,355.781 70.1146,351.948 67,347.5C 66.2585,344.438 66.4252,341.438 67.5,338.5C 63.8145,332.408 62.4812,325.742 63.5,318.5C 64.5,318.5 65.5,318.5 66.5,318.5C 67.0337,313.888 67.2004,309.222 67,304.5C 70.1311,300.367 73.6311,296.534 77.5,293C 85.9645,291.026 94.4645,290.192 103,290.5C 103.5,291 104,291.5 104.5,292C 107.833,292.333 111.167,292.667 114.5,293C 115.38,294.356 115.714,295.856 115.5,297.5 Z"/></g>
<g><path style="opacity:0.81" fill="#fefffe" d="M 420.5,215.5 C 422.339,216.752 424.172,216.752 426,215.5C 428.429,216.029 430.262,217.363 431.5,219.5C 433.573,220.469 435.739,221.135 438,221.5C 441.623,221.465 445.29,221.132 449,220.5C 449.833,220.833 450.667,221.167 451.5,221.5C 450.311,222.429 448.978,222.762 447.5,222.5C 447.561,225.05 448.894,226.55 451.5,227C 455.758,227.449 459.758,227.282 463.5,226.5C 464.893,227.863 466.559,228.696 468.5,229C 466.043,230.512 466.043,231.846 468.5,233C 473.949,233.651 479.283,233.984 484.5,234C 483.14,235.938 483.473,237.604 485.5,239C 493.612,237.762 500.278,240.095 505.5,246C 508.095,246.226 510.595,246.726 513,247.5C 516.683,246.927 519.516,248.427 521.5,252C 526.351,252.343 530.851,252.843 535,253.5C 535.483,252.552 535.649,251.552 535.5,250.5C 536.833,250.5 538.167,250.5 539.5,250.5C 539.5,251.833 539.5,253.167 539.5,254.5C 535.865,254.656 535.532,255.822 538.5,258C 541,258.5 543.5,259 546,259.5C 549.843,258.607 553.677,258.107 557.5,258C 558.552,259.716 557.886,260.716 555.5,261C 556.912,262.791 558.745,263.958 561,264.5C 564.668,264.327 568.668,263.994 573,263.5C 573.015,265.791 573.182,267.958 573.5,270C 578.563,270.248 583.563,270.915 588.5,272C 589.618,274.346 591.285,276.179 593.5,277.5C 594.5,303.158 594.833,328.825 594.5,354.5C 591.404,353.907 589.071,354.907 587.5,357.5C 588.902,358.842 588.569,359.676 586.5,360C 581.201,360.93 575.867,361.597 570.5,362C 568.098,365.815 564.598,367.982 560,368.5C 554.257,366.216 550.924,368.216 550,374.5C 545.707,374.063 541.207,373.896 536.5,374C 533.196,375.285 532.53,377.452 534.5,380.5C 526.296,378.273 518.962,379.773 512.5,385C 506.02,384.826 500.353,386.826 495.5,391C 491.416,391.231 487.416,391.898 483.5,393C 482.743,394.512 481.743,395.846 480.5,397C 475.584,398.161 470.584,398.827 465.5,399C 465.045,401.312 464.045,403.312 462.5,405C 456.899,404.877 451.232,405.543 445.5,407C 447.957,408.512 447.957,409.846 445.5,411C 439.972,411.711 434.639,412.211 429.5,412.5C 429.421,413.93 429.754,415.264 430.5,416.5C 429.731,418.801 428.731,418.967 427.5,417C 424.183,416.502 420.85,416.335 417.5,416.5C 417.617,396.478 417.284,375.811 416.5,354.5C 417.167,352.167 417.833,349.833 418.5,347.5C 423.132,346.672 427.798,346.172 432.5,346C 433.69,343.884 435.023,341.884 436.5,340C 442.167,339.667 447.833,339.333 453.5,339C 454.308,338.692 454.975,338.192 455.5,337.5C 454.359,336.575 454.359,335.741 455.5,335C 461.242,334.1 466.909,333.434 472.5,333C 476.085,331.397 476.418,329.231 473.5,326.5C 473.833,326.167 474.167,325.833 474.5,325.5C 477.638,326.744 480.972,327.411 484.5,327.5C 487.5,327.333 490.5,327.167 493.5,327C 496.028,324.925 495.861,324.092 493,324.5C 492.202,322.741 492.369,321.074 493.5,319.5C 494.48,320.981 495.647,322.315 497,323.5C 497.853,321.875 498.853,321.542 500,322.5C 504.414,321.697 508.914,321.197 513.5,321C 514.257,319.488 515.257,318.154 516.5,317C 521.833,316.667 527.167,316.333 532.5,316C 524.576,313.124 516.41,311.291 508,310.5C 503.799,311.12 499.632,311.787 495.5,312.5C 495.5,311.167 495.5,309.833 495.5,308.5C 497.167,308.5 498.833,308.5 500.5,308.5C 500.5,307.5 500.5,306.5 500.5,305.5C 492.899,304.486 485.732,304.486 479,305.5C 478.5,305.167 478,304.833 477.5,304.5C 481.155,302.897 481.155,301.063 477.5,299C 472.833,298.667 468.167,298.333 463.5,298C 461.054,296.396 458.72,294.563 456.5,292.5C 452.978,292.548 449.311,292.715 445.5,293C 441.319,291.487 437.652,289.154 434.5,286C 430.5,285.667 426.5,285.333 422.5,285C 418.332,283.825 416.332,280.992 416.5,276.5C 417.724,257.142 417.724,238.142 416.5,219.5C 417.549,217.784 418.882,216.451 420.5,215.5 Z"/></g>
<g><path style="opacity:0.789" fill="#fefffe" d="M 379.5,273.5 C 379.343,274.873 379.51,276.207 380,277.5C 382.248,280.328 384.248,283.328 386,286.5C 386.333,290.5 386.667,294.5 387,298.5C 387.444,301.611 388.777,304.277 391,306.5C 391.208,310.918 391.874,315.251 393,319.5C 393.457,327.091 392.29,334.424 389.5,341.5C 348.953,342.801 308.286,342.801 267.5,341.5C 267.759,345.933 269.593,349.6 273,352.5C 273.526,357.519 276.359,359.853 281.5,359.5C 281.5,360.833 281.5,362.167 281.5,363.5C 284.039,364.115 286.539,364.782 289,365.5C 296.128,365.612 302.961,365.445 309.5,365C 312.145,364.409 312.811,363.075 311.5,361C 311.63,359.941 312.13,359.108 313,358.5C 313.442,360.679 314.442,361.345 316,360.5C 316.781,359.271 317.281,357.938 317.5,356.5C 316.772,354.845 316.605,353.179 317,351.5C 318.425,350.921 320.092,350.921 322,351.5C 322.591,348.855 323.925,348.189 326,349.5C 327.721,348.105 329.721,347.439 332,347.5C 349.171,348.591 366.337,348.758 383.5,348C 384.025,348.692 384.692,349.192 385.5,349.5C 386.662,354.131 386.828,358.798 386,363.5C 383.049,369.57 379.383,375.236 375,380.5C 374.814,382.9 374.314,385.234 373.5,387.5C 368.146,389.473 364.813,393.139 363.5,398.5C 362.127,398.343 360.793,398.51 359.5,399C 358.862,401.78 357.362,403.947 355,405.5C 352.456,404.881 349.956,405.381 347.5,407C 349.394,408.079 349.727,409.413 348.5,411C 342.863,410.987 337.863,412.654 333.5,416C 329.789,416.175 326.122,416.675 322.5,417.5C 323.95,418.85 324.617,420.516 324.5,422.5C 307.5,422.5 290.5,422.5 273.5,422.5C 273.227,420.549 273.893,419.049 275.5,418C 275.167,417.667 274.833,417.333 274.5,417C 270.167,416.333 265.833,416.333 261.5,417C 260.953,417.925 260.287,418.758 259.5,419.5C 258.637,417.229 258.637,414.895 259.5,412.5C 255.139,411.979 250.806,411.312 246.5,410.5C 245.406,409.132 245.74,407.965 247.5,407C 245.222,406.014 242.889,405.18 240.5,404.5C 239.608,400.774 237.274,398.607 233.5,398C 231.513,396.681 230.346,394.848 230,392.5C 224.473,390.456 221.639,386.456 221.5,380.5C 220.07,380.421 218.736,380.754 217.5,381.5C 215.209,379.183 215.209,377.016 217.5,375C 216.101,371.047 213.934,370.547 211,373.5C 211.248,367.096 210.915,360.43 210,353.5C 206.827,351.319 204.827,348.319 204,344.5C 203.627,333.41 203.46,322.41 203.5,311.5C 203.619,306.221 205.786,302.221 210,299.5C 210.297,294.309 210.797,289.143 211.5,284C 211.415,282.893 211.081,281.893 210.5,281C 214.943,280.916 216.61,278.916 215.5,275C 216.211,273.745 217.044,272.579 218,271.5C 218.667,272.833 219.333,272.833 220,271.5C 221.497,267.835 223.497,264.502 226,261.5C 230.285,256.436 235.118,251.936 240.5,248C 246.217,247.444 249.217,244.611 249.5,239.5C 250.167,239.833 250.833,240.167 251.5,240.5C 254.443,239.756 257.443,239.256 260.5,239C 260.968,237.014 260.968,235.181 260.5,233.5C 261.293,233.931 262.127,234.265 263,234.5C 269.463,233.724 275.963,233.224 282.5,233C 283.833,231.667 283.833,230.333 282.5,229C 283,228.5 283.5,228 284,227.5C 292.619,226.322 301.452,226.322 310.5,227.5C 312.542,228.503 312.875,229.837 311.5,231.5C 312.025,232.192 312.692,232.692 313.5,233C 320.167,233.333 326.833,233.667 333.5,234C 334.5,235.667 335.5,237.333 336.5,239C 339.817,239.498 343.15,239.665 346.5,239.5C 347.593,244.802 350.927,247.802 356.5,248.5C 358.422,251.464 361.089,253.464 364.5,254.5C 367.095,259.017 370.595,262.684 375,265.5C 374.582,268.982 376.082,271.648 379.5,273.5 Z M 295.5,284.5 C 301.134,285.188 306.801,285.688 312.5,286C 313.717,287.648 314.55,289.481 315,291.5C 316.016,290.366 316.683,290.699 317,292.5C 318.628,291.903 320.295,292.237 322,293.5C 323.302,296.375 324.135,299.375 324.5,302.5C 306.299,302.186 288.132,302.52 270,303.5C 269.5,303.167 269,302.833 268.5,302.5C 269.865,301.059 271.365,299.726 273,298.5C 272.563,294.557 274.229,292.224 278,291.5C 278.333,291.833 278.667,292.167 279,292.5C 280.074,291.382 281.24,290.382 282.5,289.5C 281.332,288.094 281.665,286.928 283.5,286C 287.688,285.824 291.688,285.324 295.5,284.5 Z"/></g>
<g><path style="opacity:0.004" fill="#fefffe" d="M 360.5,248.5 C 361.675,248.281 362.675,248.614 363.5,249.5C 361.948,250.798 360.948,250.465 360.5,248.5 Z"/></g>
<g><path style="opacity:0.004" fill="#fefffe" d="M 228.5,250.5 C 232.079,250.766 232.413,252.099 229.5,254.5C 228.571,253.311 228.238,251.978 228.5,250.5 Z"/></g>
<g><path style="opacity:0.004" fill="#fefffe" d="M 226.5,258.5 C 227.833,259.167 227.833,259.167 226.5,258.5 Z"/></g>
<g><path style="opacity:0.004" fill="#fefffe" d="M 216.5,265.5 C 217.675,265.281 218.675,265.614 219.5,266.5C 217.948,267.798 216.948,267.465 216.5,265.5 Z"/></g>
<g><path style="opacity:0.004" fill="#fefffe" d="M 379.5,273.5 C 378.481,271.46 378.481,269.46 379.5,267.5C 380.456,268.865 381.122,270.365 381.5,272C 381.164,273.03 380.497,273.53 379.5,273.5 Z"/></g>
<g><path style="opacity:0.004" fill="#fefffe" d="M 123.5,308.5 C 125.088,309.635 125.421,310.969 124.5,312.5C 123.571,311.311 123.238,309.978 123.5,308.5 Z"/></g>
<g><path style="opacity:0.004" fill="#fefffe" d="M 505.5,312.5 C 506.978,312.238 508.311,312.571 509.5,313.5C 508.833,313.833 508.167,314.167 507.5,314.5C 506.287,314.253 505.62,313.586 505.5,312.5 Z"/></g>
<g><path style="opacity:0.004" fill="#fefffe" d="M 568.5,366.5 C 569.776,367.386 569.776,368.386 568.5,369.5C 567.438,368.575 567.438,367.575 568.5,366.5 Z"/></g>
<g><path style="opacity:0.004" fill="#fefffe" d="M 46.5,415.5 C 46.3605,417.337 45.6939,417.67 44.5,416.5C 44.9569,415.702 45.6236,415.369 46.5,415.5 Z"/></g>
<g><path style="opacity:0.004" fill="#fefffe" d="M 336.5,415.5 C 337.675,415.281 338.675,415.614 339.5,416.5C 337.948,417.798 336.948,417.465 336.5,415.5 Z"/></g>
</svg>
